<svg width="68" height="36" viewBox="0 0 68 36" fill="none" xmlns="http://www.w3.org/2000/svg">
<path fill-rule="evenodd" clip-rule="evenodd" d="M19.7659 16.4289L17.2811 13.9381C16.9668 13.623 16.3746 13.3738 15.9318 13.3698L13.3892 13.3456C12.4018 11.7781 11.3427 10.1718 10.6411 9.32502C9.91198 8.44617 8.63954 8 6.85689 8C5.57211 8 4.50735 8.238 4.46244 8.24812C4.35692 8.27175 4.27441 8.35503 4.25084 8.46024C4.20987 8.64253 3.2669 12.9411 5.32514 14.6543C6.16988 15.3571 7.77179 16.4193 9.3361 17.4085L9.36023 19.9578C9.36472 20.4023 9.61394 20.9964 9.92713 21.3098L12.4125 23.8012C12.5949 23.984 12.7555 24.0352 12.8773 24.0352C12.9497 24.0352 13.0086 24.0178 13.0513 23.9987C13.1652 23.9469 13.3521 23.7995 13.3268 23.3876L13.0973 19.7153C13.3145 19.8447 13.4548 19.928 13.4885 19.9476C13.5323 19.9735 13.5817 19.9865 13.6311 19.9865C13.6642 19.9865 13.6973 19.9803 13.7293 19.969C13.8084 19.9392 13.8702 19.8756 13.8971 19.7952C13.8999 19.7867 14.1654 19.0097 14.5757 18.5973C14.986 18.186 15.7617 17.9199 15.7701 17.9171C15.8504 17.8901 15.9138 17.8282 15.9436 17.7489C15.9728 17.669 15.9649 17.5806 15.9222 17.5075C15.9026 17.4732 15.8195 17.3325 15.6904 17.1153L19.3539 17.3454C19.3798 17.3471 19.4045 17.3477 19.428 17.3477C19.7833 17.3477 19.9158 17.1761 19.9641 17.0697C20.014 16.9555 20.0567 16.7209 19.7659 16.4289ZM4.76273 8.76181C5.11129 8.69542 5.93245 8.56264 6.85689 8.56264C7.96207 8.56264 9.44106 8.75731 10.2095 9.6851C11.3579 11.0714 13.5626 14.6645 14.7071 16.5667C13.951 16.7237 13.3139 17.2526 13.2544 17.3066C13.2281 17.3381 12.7117 17.9677 12.5528 18.7307C10.6551 17.584 7.0685 15.3723 5.68437 14.2205C4.10434 12.9068 4.61287 9.56751 4.76273 8.76181ZM12.7616 23.3561L10.3234 20.912C10.1124 20.7005 9.92433 20.2515 9.92096 19.9521L9.90019 17.7635C10.901 18.3897 11.8428 18.9619 12.5119 19.3648L12.7616 23.3561ZM14.1783 18.1995C13.8595 18.5191 13.6238 18.985 13.4902 19.2944C13.417 19.2509 13.3271 19.197 13.2269 19.1369L13.0737 19.0452C13.1214 18.4273 13.5579 17.8296 13.6377 17.7204L13.6377 17.7204C13.6462 17.7088 13.6506 17.7027 13.6502 17.7027C13.8455 17.5373 14.4629 17.1406 15.0208 17.0911L15.1299 17.2747C15.1828 17.3637 15.2304 17.4436 15.2695 17.5097C14.9613 17.6436 14.4966 17.8805 14.1783 18.1995ZM15.3402 16.5296C14.9389 15.8589 14.368 14.9148 13.7428 13.9122L15.9262 13.933C16.2248 13.9358 16.6727 14.1243 16.8843 14.3364L19.322 16.78L15.3402 16.5296ZM6.55663 10.5594C5.74445 11.3736 5.74445 12.698 6.55663 13.5122C6.9501 13.9066 7.47322 14.1238 8.02945 14.1238C8.58569 14.1238 9.10881 13.9066 9.50171 13.5122C10.3139 12.698 10.3139 11.373 9.50227 10.5594C8.71478 9.77006 7.34356 9.77006 6.55663 10.5594ZM9.10488 13.1144C8.52956 13.69 7.52654 13.6894 6.95346 13.1144C6.36018 12.5197 6.36018 11.5519 6.95346 10.9572C7.24084 10.6692 7.62252 10.5105 8.02945 10.5105C8.43638 10.5105 8.81806 10.6692 9.10544 10.9572C9.69816 11.5519 9.69816 12.5191 9.10488 13.1144ZM19.4393 20.6571L17.8727 20.5401L19.6974 23.3229C19.7553 23.3741 19.7906 23.449 19.7906 23.5322C19.7906 23.6875 19.6649 23.8135 19.51 23.8135C19.5077 23.8141 19.5032 23.8141 19.4988 23.8135C19.4482 23.8135 19.3972 23.8 19.3517 23.7719L16.5498 22.0485L16.6457 22.8469C16.6603 22.8801 16.6682 22.9184 16.6682 22.9572C16.6682 23.1142 16.5189 23.2554 16.3825 23.2385H16.3763C16.2837 23.2385 16.1945 23.1924 16.1411 23.1108L14.3669 20.3859C14.3372 20.3404 14.3214 20.2869 14.3214 20.2323C14.3214 19.6539 14.9007 19.0564 14.9669 18.99C15.0332 18.9236 15.6298 18.343 16.2068 18.343C16.2534 18.343 16.2989 18.3548 16.3393 18.3768L19.593 20.1288C19.7098 20.1913 19.7665 20.3274 19.73 20.4551C19.6918 20.5823 19.5807 20.6633 19.4393 20.6571ZM16.2001 21.2226C16.2511 21.2226 16.3022 21.2361 16.3471 21.2642L18.5726 22.6337L17.0903 20.3713C17.0313 20.2819 17.0285 20.1665 17.083 20.0742C17.1369 19.982 17.2384 19.9257 17.3457 19.9364L18.1635 19.9972L16.1445 18.9101C15.8863 18.9495 15.5355 19.2157 15.3621 19.3884C15.1931 19.5589 14.9332 19.9015 14.8878 20.1592L15.952 21.792L15.9211 21.5371C15.9082 21.4302 15.9576 21.3256 16.0485 21.267C16.0945 21.2372 16.1473 21.2226 16.2001 21.2226Z" fill="white"/>
<path d="M26.7159 7.89702V5.90909H37.1605V7.89702H33.1143V19H30.7621V7.89702H26.7159ZM40.8354 5.90909L44.2424 16.2131H44.3766L47.7772 5.90909H50.3851L45.7701 19H42.8425L38.2339 5.90909H40.8354Z" fill="white"/>
<path d="M27.4148 22.2727L30.0057 29.6193H30.108L32.6989 22.2727H33.8068L30.6023 31H29.5114L26.3068 22.2727H27.4148ZM37.0795 31.1364C36.4886 31.1364 35.9702 30.9957 35.5241 30.7145C35.081 30.4332 34.7344 30.0398 34.4844 29.5341C34.2372 29.0284 34.1136 28.4375 34.1136 27.7614C34.1136 27.0795 34.2372 26.4844 34.4844 25.9759C34.7344 25.4673 35.081 25.0724 35.5241 24.7912C35.9702 24.5099 36.4886 24.3693 37.0795 24.3693C37.6705 24.3693 38.1875 24.5099 38.6307 24.7912C39.0767 25.0724 39.4233 25.4673 39.6705 25.9759C39.9205 26.4844 40.0455 27.0795 40.0455 27.7614C40.0455 28.4375 39.9205 29.0284 39.6705 29.5341C39.4233 30.0398 39.0767 30.4332 38.6307 30.7145C38.1875 30.9957 37.6705 31.1364 37.0795 31.1364ZM37.0795 30.233C37.5284 30.233 37.8977 30.1179 38.1875 29.8878C38.4773 29.6577 38.6918 29.3551 38.831 28.9801C38.9702 28.6051 39.0398 28.1989 39.0398 27.7614C39.0398 27.3239 38.9702 26.9162 38.831 26.5384C38.6918 26.1605 38.4773 25.8551 38.1875 25.6222C37.8977 25.3892 37.5284 25.2727 37.0795 25.2727C36.6307 25.2727 36.2614 25.3892 35.9716 25.6222C35.6818 25.8551 35.4673 26.1605 35.3281 26.5384C35.1889 26.9162 35.1193 27.3239 35.1193 27.7614C35.1193 28.1989 35.1889 28.6051 35.3281 28.9801C35.4673 29.3551 35.6818 29.6577 35.9716 29.8878C36.2614 30.1179 36.6307 30.233 37.0795 30.233ZM41.994 33.4545C41.8235 33.4545 41.6715 33.4403 41.538 33.4119C41.4045 33.3864 41.3121 33.3608 41.261 33.3352L41.5167 32.4489C41.761 32.5114 41.9769 32.5341 42.1644 32.517C42.3519 32.5 42.5181 32.4162 42.663 32.2656C42.8107 32.1179 42.9457 31.8778 43.0678 31.5455L43.2553 31.0341L40.8349 24.4545H41.9258L43.7326 29.6705H43.8008L45.6076 24.4545H46.6985L43.9201 31.9545C43.7951 32.2926 43.6403 32.5724 43.4556 32.794C43.271 33.0185 43.0565 33.1847 42.8121 33.2926C42.5707 33.4006 42.2979 33.4545 41.994 33.4545ZM49.7528 31.1534C49.3381 31.1534 48.9616 31.0753 48.6236 30.919C48.2855 30.7599 48.017 30.5312 47.8182 30.233C47.6193 29.9318 47.5199 29.5682 47.5199 29.142C47.5199 28.767 47.5938 28.4631 47.7415 28.2301C47.8892 27.9943 48.0866 27.8097 48.3338 27.6761C48.581 27.5426 48.8537 27.4432 49.152 27.3778C49.4531 27.3097 49.7557 27.2557 50.0597 27.2159C50.4574 27.1648 50.7798 27.1264 51.027 27.1009C51.277 27.0724 51.4588 27.0256 51.5724 26.9602C51.6889 26.8949 51.7472 26.7812 51.7472 26.6193V26.5852C51.7472 26.1648 51.6321 25.8381 51.402 25.6051C51.1747 25.3722 50.8295 25.2557 50.3665 25.2557C49.8864 25.2557 49.5099 25.3608 49.2372 25.571C48.9645 25.7812 48.7727 26.0057 48.6619 26.2443L47.7074 25.9034C47.8778 25.5057 48.1051 25.196 48.3892 24.9744C48.6761 24.75 48.9886 24.5937 49.3267 24.5057C49.6676 24.4148 50.0028 24.3693 50.3324 24.3693C50.5426 24.3693 50.7841 24.3949 51.0568 24.446C51.3324 24.4943 51.598 24.5952 51.8537 24.7486C52.1122 24.902 52.3267 25.1335 52.4972 25.4432C52.6676 25.7528 52.7528 26.1676 52.7528 26.6875V31H51.7472V30.1136H51.696C51.6278 30.2557 51.5142 30.4077 51.3551 30.5696C51.196 30.7315 50.9844 30.8693 50.7202 30.983C50.456 31.0966 50.1335 31.1534 49.7528 31.1534ZM49.9062 30.25C50.304 30.25 50.6392 30.1719 50.9119 30.0156C51.1875 29.8594 51.3949 29.6577 51.5341 29.4105C51.6761 29.1634 51.7472 28.9034 51.7472 28.6307V27.7102C51.7045 27.7614 51.6108 27.8082 51.4659 27.8509C51.3239 27.8906 51.1591 27.9261 50.9716 27.9574C50.7869 27.9858 50.6065 28.0114 50.4304 28.0341C50.2571 28.054 50.1165 28.071 50.0085 28.0852C49.7472 28.1193 49.5028 28.1747 49.2756 28.2514C49.0511 28.3253 48.8693 28.4375 48.7301 28.5881C48.5938 28.7358 48.5256 28.9375 48.5256 29.1932C48.5256 29.5426 48.6548 29.8068 48.9134 29.9858C49.1747 30.1619 49.5057 30.25 49.9062 30.25ZM57.2305 33.5909C56.7447 33.5909 56.3271 33.5284 55.9776 33.4034C55.6282 33.2812 55.337 33.1193 55.104 32.9176C54.8739 32.7188 54.6907 32.5057 54.5543 32.2784L55.3555 31.7159C55.4464 31.8352 55.5614 31.9716 55.7006 32.125C55.8398 32.2812 56.0302 32.4162 56.2717 32.5298C56.516 32.6463 56.8356 32.7045 57.2305 32.7045C57.7589 32.7045 58.195 32.5767 58.5387 32.321C58.8825 32.0653 59.0543 31.6648 59.0543 31.1193V29.7898H58.9691C58.8952 29.9091 58.7901 30.0568 58.6538 30.233C58.5202 30.4062 58.3271 30.5611 58.0742 30.6974C57.8242 30.831 57.4862 30.8977 57.06 30.8977C56.5316 30.8977 56.0572 30.7727 55.6367 30.5227C55.2191 30.2727 54.8881 29.9091 54.6438 29.4318C54.4023 28.9545 54.2816 28.375 54.2816 27.6932C54.2816 27.0227 54.3995 26.4389 54.6353 25.9418C54.8711 25.4418 55.1992 25.0554 55.6197 24.7827C56.0401 24.5071 56.5259 24.3693 57.0771 24.3693C57.5032 24.3693 57.8413 24.4403 58.0913 24.5824C58.3441 24.7216 58.5373 24.8807 58.6708 25.0597C58.8072 25.2358 58.9123 25.3807 58.9862 25.4943H59.0884V24.4545H60.06V31.1875C60.06 31.75 59.9322 32.2074 59.6765 32.5597C59.4237 32.9148 59.0827 33.1747 58.6538 33.3395C58.2276 33.5071 57.7532 33.5909 57.2305 33.5909ZM57.1964 29.9943C57.5998 29.9943 57.9407 29.902 58.2191 29.7173C58.4975 29.5327 58.7092 29.267 58.854 28.9205C58.9989 28.5739 59.0714 28.1591 59.0714 27.6761C59.0714 27.2045 59.0004 26.7884 58.8583 26.4276C58.7163 26.0668 58.506 25.7841 58.2276 25.5795C57.9492 25.375 57.6055 25.2727 57.1964 25.2727C56.7702 25.2727 56.4151 25.3807 56.131 25.5966C55.8498 25.8125 55.6381 26.1023 55.4961 26.4659C55.3569 26.8295 55.2873 27.233 55.2873 27.6761C55.2873 28.1307 55.3583 28.5327 55.5004 28.8821C55.6452 29.2287 55.8583 29.5014 56.1396 29.7003C56.4237 29.8963 56.7759 29.9943 57.1964 29.9943ZM64.6452 31.1364C64.0146 31.1364 63.4705 30.9972 63.0131 30.7188C62.5586 30.4375 62.2077 30.0455 61.9606 29.5426C61.7163 29.0369 61.5941 28.4489 61.5941 27.7784C61.5941 27.108 61.7163 26.517 61.9606 26.0057C62.2077 25.4915 62.5515 25.0909 62.9918 24.804C63.435 24.5142 63.9521 24.3693 64.543 24.3693C64.8839 24.3693 65.2205 24.4261 65.5529 24.5398C65.8853 24.6534 66.1879 24.8381 66.4606 25.0938C66.7333 25.3466 66.9506 25.6818 67.1126 26.0994C67.2745 26.517 67.3555 27.0312 67.3555 27.642V28.0682H62.31V27.1989H66.3327C66.3327 26.8295 66.2589 26.5 66.1112 26.2102C65.9663 25.9205 65.7589 25.6918 65.489 25.5241C65.2219 25.3565 64.9066 25.2727 64.543 25.2727C64.1424 25.2727 63.7958 25.3722 63.5032 25.571C63.2134 25.767 62.9904 26.0227 62.8342 26.3381C62.6779 26.6534 62.5998 26.9915 62.5998 27.3523V27.9318C62.5998 28.4261 62.685 28.8452 62.8555 29.1889C63.0288 29.5298 63.2688 29.7898 63.5756 29.9688C63.8825 30.1449 64.239 30.233 64.6452 30.233C64.9094 30.233 65.1481 30.196 65.3612 30.1222C65.5771 30.0455 65.7631 29.9318 65.9194 29.7812C66.0756 29.6278 66.1964 29.4375 66.2816 29.2102L67.2532 29.483C67.1509 29.8125 66.979 30.1023 66.7376 30.3523C66.4961 30.5994 66.1978 30.7926 65.8427 30.9318C65.4876 31.0682 65.0884 31.1364 64.6452 31.1364Z" fill="white"/>
</svg>
