<svg width="24" height="25" viewBox="0 0 24 25" fill="none" xmlns="http://www.w3.org/2000/svg">
<path fill-rule="evenodd" clip-rule="evenodd" d="M19.7659 12.4289L17.2811 9.9381C16.9668 9.62302 16.3746 9.37377 15.9318 9.36983L13.3892 9.34564C12.4018 7.77812 11.3427 6.17179 10.6411 5.32502C9.91198 4.44617 8.63954 4 6.85689 4C5.57211 4 4.50735 4.238 4.46244 4.24812C4.35692 4.27175 4.27441 4.35503 4.25084 4.46024C4.20987 4.64253 3.2669 8.9411 5.32514 10.6543C6.16988 11.3571 7.77179 12.4193 9.3361 13.4085L9.36023 15.9578C9.36472 16.4023 9.61394 16.9964 9.92713 17.3098L12.4125 19.8012C12.5949 19.984 12.7555 20.0352 12.8773 20.0352C12.9497 20.0352 13.0086 20.0178 13.0513 19.9987C13.1652 19.9469 13.3521 19.7995 13.3268 19.3876L13.0973 15.7153C13.3145 15.8447 13.4548 15.928 13.4885 15.9476C13.5323 15.9735 13.5817 15.9865 13.6311 15.9865C13.6642 15.9865 13.6973 15.9803 13.7293 15.969C13.8084 15.9392 13.8702 15.8756 13.8971 15.7952C13.8999 15.7867 14.1654 15.0097 14.5757 14.5973C14.986 14.186 15.7617 13.9199 15.7701 13.9171C15.8504 13.8901 15.9138 13.8282 15.9436 13.7489C15.9728 13.669 15.9649 13.5806 15.9222 13.5075C15.9026 13.4732 15.8195 13.3325 15.6904 13.1153L19.3539 13.3454C19.3798 13.3471 19.4045 13.3477 19.428 13.3477C19.7833 13.3477 19.9158 13.1761 19.9641 13.0697C20.014 12.9555 20.0567 12.7209 19.7659 12.4289ZM4.76273 4.76181C5.11129 4.69542 5.93245 4.56264 6.85689 4.56264C7.96207 4.56264 9.44106 4.75731 10.2095 5.6851C11.3579 7.07145 13.5626 10.6645 14.7071 12.5667C13.951 12.7237 13.3139 13.2526 13.2544 13.3066C13.2281 13.3381 12.7117 13.9677 12.5528 14.7307C10.6551 13.584 7.0685 11.3723 5.68437 10.2205C4.10434 8.90678 4.61287 5.56751 4.76273 4.76181ZM12.7616 19.3561L10.3234 16.912C10.1124 16.7005 9.92433 16.2515 9.92096 15.9521L9.90019 13.7635C10.901 14.3897 11.8428 14.9619 12.5119 15.3648L12.7616 19.3561ZM14.1783 14.1995C13.8595 14.5191 13.6238 14.985 13.4902 15.2944C13.417 15.2509 13.3271 15.197 13.2269 15.1369L13.0737 15.0452C13.1214 14.4273 13.5579 13.8296 13.6377 13.7204L13.6377 13.7204C13.6462 13.7088 13.6506 13.7027 13.6502 13.7027C13.8455 13.5373 14.4629 13.1406 15.0208 13.0911L15.1299 13.2747C15.1828 13.3637 15.2304 13.4436 15.2695 13.5097C14.9613 13.6436 14.4966 13.8805 14.1783 14.1995ZM15.3402 12.5296C14.9389 11.8589 14.368 10.9148 13.7428 9.91222L15.9262 9.93303C16.2248 9.93585 16.6727 10.1243 16.8843 10.3364L19.322 12.78L15.3402 12.5296ZM6.55663 6.55945C5.74445 7.37359 5.74445 8.69804 6.55663 9.51218C6.9501 9.90659 7.47322 10.1238 8.02945 10.1238C8.58569 10.1238 9.10881 9.90659 9.50171 9.51218C10.3139 8.69804 10.3139 7.37302 9.50227 6.55945C8.71478 5.77006 7.34356 5.77006 6.55663 6.55945ZM9.10488 9.11439C8.52956 9.68997 7.52654 9.68941 6.95346 9.11439C6.36018 8.51968 6.36018 7.55194 6.95346 6.95723C7.24084 6.66916 7.62252 6.5105 8.02945 6.5105C8.43638 6.5105 8.81806 6.66916 9.10544 6.95723C9.69816 7.55194 9.69816 8.51912 9.10488 9.11439ZM19.4393 16.6571L17.8727 16.5401L19.6974 19.3229C19.7553 19.3741 19.7906 19.449 19.7906 19.5322C19.7906 19.6875 19.6649 19.8135 19.51 19.8135C19.5077 19.8141 19.5032 19.8141 19.4988 19.8135C19.4482 19.8135 19.3972 19.8 19.3517 19.7719L16.5498 18.0485L16.6457 18.8469C16.6603 18.8801 16.6682 18.9184 16.6682 18.9572C16.6682 19.1142 16.5189 19.2554 16.3825 19.2385H16.3763C16.2837 19.2385 16.1945 19.1924 16.1411 19.1108L14.3669 16.3859C14.3372 16.3404 14.3214 16.2869 14.3214 16.2323C14.3214 15.6539 14.9007 15.0564 14.9669 14.99C15.0332 14.9236 15.6298 14.343 16.2068 14.343C16.2534 14.343 16.2989 14.3548 16.3393 14.3768L19.593 16.1288C19.7098 16.1913 19.7665 16.3274 19.73 16.4551C19.6918 16.5823 19.5807 16.6633 19.4393 16.6571ZM16.2001 17.2226C16.2511 17.2226 16.3022 17.2361 16.3471 17.2642L18.5726 18.6337L17.0903 16.3713C17.0313 16.2819 17.0285 16.1665 17.083 16.0742C17.1369 15.982 17.2384 15.9257 17.3457 15.9364L18.1635 15.9972L16.1445 14.9101C15.8863 14.9495 15.5355 15.2157 15.3621 15.3884C15.1931 15.5589 14.9332 15.9015 14.8878 16.1592L15.952 17.792L15.9211 17.5371C15.9082 17.4302 15.9576 17.3256 16.0485 17.267C16.0945 17.2372 16.1473 17.2226 16.2001 17.2226Z" fill="white"/>
</svg>
