<svg width="16" height="16" viewBox="0 0 16 16" fill="none" xmlns="http://www.w3.org/2000/svg">
<path fill-rule="evenodd" clip-rule="evenodd" d="M7.51068 0.330241C7.59795 0.128981 7.78926 0 8 0C8.21075 0 8.40205 0.128981 8.48932 0.330241L10.4691 4.88935C10.5244 5.01713 10.6398 5.10498 10.7728 5.12056L15.5228 5.6848C15.7324 5.70956 15.9085 5.86051 15.9736 6.07055C16.0388 6.2806 15.9809 6.51101 15.8254 6.65996L12.2991 10.0419C12.2 10.1365 12.1562 10.2786 12.1829 10.4164L13.1387 15.3241C13.181 15.5406 13.0987 15.7626 12.9279 15.8924C12.7576 16.0222 12.5304 16.0357 12.3471 15.9267L8.18788 13.4577C8.07126 13.3886 7.92874 13.3886 7.81212 13.4577L3.65286 15.9267C3.46955 16.0357 3.24242 16.0222 3.07207 15.8924C2.90134 15.7626 2.81903 15.5406 2.86133 15.3241L3.81711 10.4164C3.84379 10.2786 3.79996 10.1365 3.70088 10.0419L0.174615 6.65996C0.0191286 6.51101 -0.0387977 6.2806 0.0263694 6.07055C0.0915365 5.86051 0.267601 5.70956 0.477203 5.6848L5.22716 5.12056C5.36016 5.10498 5.47563 5.01713 5.53089 4.88935L7.51068 0.330241Z" fill="#CEA925"/>
</svg>
